STARTFONT 2.1
FONT -Monotype-Bembo-Regular-R-Normal--14-140-72-72-P-62-iso8859-1
SIZE 14 72 72
FONTBOUNDINGBOX 15 17 -1 -4

STARTPROPERTIES 22
FOUNDRY "Monotype"
FAMILY_NAME "Bembo"
WEIGHT_NAME "Regular"
SLANT "R"
SETWIDTH_NAME "Normal"
ADD_STYLE_NAME ""
PIXEL_SIZE 14
POINT_SIZE 140
RESOLUTION_X 72
RESOLUTION_Y 72
SPACING "P"
AVERAGE_WIDTH 62
CHARSET_REGISTRY "iso8859"
CHARSET_ENCODING "1"
COPYRIGHT "Copyright (c) 1996 Monotype Typography Ltd."
CAP_HEIGHT 10
X_HEIGHT 6
WEIGHT 10
QUAD_WIDTH 9
DEFAULT_CHAR 32
FONT_DESCENT 4
FONT_ASCENT 13
ENDPROPERTIES

CHARS 191

STARTCHAR space
ENCODING 32
SWIDTH 278 0
DWIDTH 5 0
BBX 0 0 0 0
BITMAP
ENDCHAR

STARTCHAR exclam
ENCODING 33
SWIDTH 260 0
DWIDTH 4 0
BBX 1 10 1 0
BITMAP
80
80
80
80
80
80
80
00
00
80
ENDCHAR

STARTCHAR quotedbl
ENCODING 34
SWIDTH 406 0
DWIDTH 6 0
BBX 4 4 1 6
BITMAP
90
90
90
90
ENDCHAR

STARTCHAR numbersign
ENCODING 35
SWIDTH 668 0
DWIDTH 10 0
BBX 9 10 0 0
BITMAP
1100
1100
1100
7F80
2200
2200
FF00
4400
4400
4400
ENDCHAR

STARTCHAR dollar
ENCODING 36
SWIDTH 458 0
DWIDTH 7 0
BBX 5 12 1 -1
BITMAP
20
78
A8
A0
A0
60
30
28
28
A8
F0
20
ENDCHAR

STARTCHAR percent
ENCODING 37
SWIDTH 719 0
DWIDTH 11 0
BBX 10 10 0 0
BITMAP
6040
9080
9100
9200
6400
0980
1240
2240
4240
8180
ENDCHAR

STARTCHAR ampersand
ENCODING 38
SWIDTH 729 0
DWIDTH 11 0
BBX 9 9 1 0
BITMAP
3000
4800
4800
3180
3100
4A00
8400
8A00
7180
ENDCHAR

STARTCHAR quoteright
ENCODING 39
SWIDTH 260 0
DWIDTH 4 0
BBX 2 3 1 7
BITMAP
40
40
80
ENDCHAR

STARTCHAR parenleft
ENCODING 40
SWIDTH 302 0
DWIDTH 5 0
BBX 3 13 2 -3
BITMAP
20
20
40
40
80
80
80
80
80
40
40
20
20
ENDCHAR

STARTCHAR parenright
ENCODING 41
SWIDTH 302 0
DWIDTH 5 0
BBX 3 13 0 -3
BITMAP
80
80
40
40
20
20
20
20
20
40
40
80
80
ENDCHAR

STARTCHAR asterisk
ENCODING 42
SWIDTH 510 0
DWIDTH 8 0
BBX 5 6 1 4
BITMAP
20
A8
70
20
50
88
ENDCHAR

STARTCHAR plus
ENCODING 43
SWIDTH 667 0
DWIDTH 10 0
BBX 7 7 1 1
BITMAP
10
10
10
FE
10
10
10
ENDCHAR

STARTCHAR comma
ENCODING 44
SWIDTH 260 0
DWIDTH 4 0
BBX 2 3 1 -2
BITMAP
40
40
80
ENDCHAR

STARTCHAR minus
ENCODING 45
SWIDTH 667 0
DWIDTH 10 0
BBX 7 1 1 4
BITMAP
FE
ENDCHAR

STARTCHAR period
ENCODING 46
SWIDTH 260 0
DWIDTH 4 0
BBX 1 1 1 0
BITMAP
80
ENDCHAR

STARTCHAR slash
ENCODING 47
SWIDTH 458 0
DWIDTH 7 0
BBX 5 10 1 0
BITMAP
08
08
10
10
20
20
40
40
80
80
ENDCHAR

STARTCHAR zero
ENCODING 48
SWIDTH 490 0
DWIDTH 7 0
BBX 5 10 1 0
BITMAP
70
88
88
88
88
88
88
88
88
70
ENDCHAR

STARTCHAR one
ENCODING 49
SWIDTH 490 0
DWIDTH 7 0
BBX 4 10 1 0
BITMAP
20
60
A0
20
20
20
20
20
20
70
ENDCHAR

STARTCHAR two
ENCODING 50
SWIDTH 490 0
DWIDTH 7 0
BBX 6 10 0 0
BITMAP
78
84
04
04
08
08
10
20
44
FC
ENDCHAR

STARTCHAR three
ENCODING 51
SWIDTH 490 0
DWIDTH 7 0
BBX 6 10 0 0
BITMAP
70
88
08
10
38
44
04
04
88
70
ENDCHAR

STARTCHAR four
ENCODING 52
SWIDTH 490 0
DWIDTH 7 0
BBX 6 10 0 0
BITMAP
08
08
18
28
48
88
FC
08
08
08
ENDCHAR

STARTCHAR five
ENCODING 53
SWIDTH 490 0
DWIDTH 7 0
BBX 6 10 0 0
BITMAP
78
40
40
40
78
44
04
04
88
70
ENDCHAR

STARTCHAR six
ENCODING 54
SWIDTH 490 0
DWIDTH 7 0
BBX 6 10 0 0
BITMAP
18
20
40
80
B8
C4
84
84
88
70
ENDCHAR

STARTCHAR seven
ENCODING 55
SWIDTH 490 0
DWIDTH 7 0
BBX 6 10 0 0
BITMAP
FC
84
08
08
10
10
20
20
40
40
ENDCHAR

STARTCHAR eight
ENCODING 56
SWIDTH 490 0
DWIDTH 7 0
BBX 5 10 1 0
BITMAP
70
88
88
88
70
88
88
88
88
70
ENDCHAR

STARTCHAR nine
ENCODING 57
SWIDTH 490 0
DWIDTH 7 0
BBX 6 10 0 0
BITMAP
38
44
84
84
8C
74
04
08
10
60
ENDCHAR

STARTCHAR colon
ENCODING 58
SWIDTH 260 0
DWIDTH 4 0
BBX 1 6 1 0
BITMAP
80
00
00
00
00
80
ENDCHAR

STARTCHAR semicolon
ENCODING 59
SWIDTH 260 0
DWIDTH 4 0
BBX 2 8 0 -2
BITMAP
40
00
00
00
00
40
40
80
ENDCHAR

STARTCHAR less
ENCODING 60
SWIDTH 667 0
DWIDTH 10 0
BBX 8 7 1 1
BITMAP
03
0C
30
C0
30
0C
03
ENDCHAR

STARTCHAR equal
ENCODING 61
SWIDTH 667 0
DWIDTH 10 0
BBX 7 4 1 3
BITMAP
FE
00
00
FE
ENDCHAR

STARTCHAR greater
ENCODING 62
SWIDTH 667 0
DWIDTH 10 0
BBX 8 7 1 1
BITMAP
C0
30
0C
03
0C
30
C0
ENDCHAR

STARTCHAR question
ENCODING 63
SWIDTH 354 0
DWIDTH 5 0
BBX 4 10 1 0
BITMAP
E0
10
10
20
40
80
80
00
00
80
ENDCHAR

STARTCHAR at
ENCODING 64
SWIDTH 917 0
DWIDTH 14 0
BBX 12 13 1 -3
BITMAP
0F80
3040
4020
4790
8890
8890
9110
9110
9220
4DC0
4010
3060
0F80
ENDCHAR

STARTCHAR A
ENCODING 65
SWIDTH 677 0
DWIDTH 10 0
BBX 9 10 0 0
BITMAP
0800
0800
1400
1400
2200
3E00
2200
4100
4100
E380
ENDCHAR

STARTCHAR B
ENCODING 66
SWIDTH 635 0
DWIDTH 10 0
BBX 8 10 1 0
BITMAP
FC
42
42
42
7C
42
41
41
41
FE
ENDCHAR

STARTCHAR C
ENCODING 67
SWIDTH 729 0
DWIDTH 11 0
BBX 9 10 1 0
BITMAP
3E00
4180
8080
8000
8000
8000
8000
8080
4180
3E00
ENDCHAR

STARTCHAR D
ENCODING 68
SWIDTH 760 0
DWIDTH 11 0
BBX 9 10 1 0
BITMAP
FC00
4200
4100
4080
4080
4080
4080
4100
4200
FC00
ENDCHAR

STARTCHAR E
ENCODING 69
SWIDTH 594 0
DWIDTH 9 0
BBX 7 10 1 0
BITMAP
FE
42
40
44
7C
44
40
40
42
FE
ENDCHAR

STARTCHAR F
ENCODING 70
SWIDTH 531 0
DWIDTH 8 0
BBX 7 10 1 0
BITMAP
FE
42
40
44
7C
44
40
40
40
E0
ENDCHAR

STARTCHAR G
ENCODING 71
SWIDTH 740 0
DWIDTH 11 0
BBX 10 10 1 0
BITMAP
3E00
4180
8080
8000
8000
83C0
8080
8080
4180
3E00
ENDCHAR

STARTCHAR H
ENCODING 72
SWIDTH 792 0
DWIDTH 12 0
BBX 10 10 1 0
BITMAP
E1C0
4080
4080
4080
7F80
4080
4080
4080
4080
E1C0
ENDCHAR

STARTCHAR I
ENCODING 73
SWIDTH 333 0
DWIDTH 5 0
BBX 3 10 1 0
BITMAP
E0
40
40
40
40
40
40
40
40
E0
ENDCHAR

STARTCHAR J
ENCODING 74
SWIDTH 302 0
DWIDTH 5 0
BBX 5 13 -1 -3
BITMAP
38
10
10
10
10
10
10
10
10
10
10
90
60
ENDCHAR

STARTCHAR K
ENCODING 75
SWIDTH 698 0
DWIDTH 10 0
BBX 9 10 1 0
BITMAP
E780
4200
4400
4800
7000
4800
4400
4200
4100
F380
ENDCHAR

STARTCHAR L
ENCODING 76
SWIDTH 552 0
DWIDTH 8 0
BBX 7 10 1 0
BITMAP
E0
40
40
40
40
40
40
40
42
FC
ENDCHAR

STARTCHAR M
ENCODING 77
SWIDTH 917 0
DWIDTH 14 0
BBX 13 10 0 0
BITMAP
E038
6030
5050
5050
4890
4890
4510
4510
4210
E238
ENDCHAR

STARTCHAR N
ENCODING 78
SWIDTH 813 0
DWIDTH 12 0
BBX 10 10 1 0
BITMAP
E1C0
6080
5080
5080
4880
4480
4480
4280
4180
E080
ENDCHAR

STARTCHAR O
ENCODING 79
SWIDTH 823 0
DWIDTH 12 0
BBX 10 10 1 0
BITMAP
3F00
4080
8040
8040
8040
8040
8040
8040
4080
3F00
ENDCHAR

STARTCHAR P
ENCODING 80
SWIDTH 563 0
DWIDTH 8 0
BBX 6 10 1 0
BITMAP
F8
44
44
44
44
78
40
40
40
E0
ENDCHAR

STARTCHAR Q
ENCODING 81
SWIDTH 823 0
DWIDTH 12 0
BBX 10 13 1 -3
BITMAP
3F00
4080
8040
8040
8040
8040
8040
8040
4080
3F00
0C00
0300
00C0
ENDCHAR

STARTCHAR R
ENCODING 82
SWIDTH 802 0
DWIDTH 12 0
BBX 10 10 1 0
BITMAP
FC00
4200
4200
4200
7C00
4800
4400
4200
4100
F0C0
ENDCHAR

STARTCHAR S
ENCODING 83
SWIDTH 490 0
DWIDTH 7 0
BBX 5 10 1 0
BITMAP
68
98
88
80
60
10
08
88
C8
B0
ENDCHAR

STARTCHAR T
ENCODING 84
SWIDTH 677 0
DWIDTH 10 0
BBX 9 10 0 0
BITMAP
FF80
8880
0800
0800
0800
0800
0800
0800
0800
1C00
ENDCHAR

STARTCHAR U
ENCODING 85
SWIDTH 792 0
DWIDTH 12 0
BBX 10 10 1 0
BITMAP
E1C0
4080
4080
4080
4080
4080
4080
4080
2100
1E00
ENDCHAR

STARTCHAR V
ENCODING 86
SWIDTH 688 0
DWIDTH 10 0
BBX 9 10 0 0
BITMAP
E380
4100
4100
2200
2200
2200
1400
1400
0800
0800
ENDCHAR

STARTCHAR W
ENCODING 87
SWIDTH 1000 0
DWIDTH 15 0
BBX 13 10 1 0
BITMAP
EFB8
4510
4510
2220
2220
2220
1540
1540
0880
0880
ENDCHAR

STARTCHAR X
ENCODING 88
SWIDTH 750 0
DWIDTH 11 0
BBX 10 10 0 0
BITMAP
E1C0
4080
2100
1200
0C00
0C00
1200
2100
4080
E1C0
ENDCHAR

STARTCHAR Y
ENCODING 89
SWIDTH 708 0
DWIDTH 11 0
BBX 9 10 1 0
BITMAP
E380
4100
2200
1400
0800
0800
0800
0800
0800
1C00
ENDCHAR

STARTCHAR Z
ENCODING 90
SWIDTH 677 0
DWIDTH 10 0
BBX 8 10 1 0
BITMAP
FF
81
02
04
08
10
20
40
81
FF
ENDCHAR

STARTCHAR bracketleft
ENCODING 91
SWIDTH 302 0
DWIDTH 5 0
BBX 3 13 2 -3
BITMAP
E0
80
80
80
80
80
80
80
80
80
80
80
E0
ENDCHAR

STARTCHAR backslash
ENCODING 92
SWIDTH 458 0
DWIDTH 7 0
BBX 6 11 0 -2
BITMAP
80
80
40
40
20
20
10
10
08
08
04
ENDCHAR

STARTCHAR bracketright
ENCODING 93
SWIDTH 302 0
DWIDTH 5 0
BBX 3 13 0 -3
BITMAP
E0
20
20
20
20
20
20
20
20
20
20
20
E0
ENDCHAR

STARTCHAR asciicircum
ENCODING 94
SWIDTH 469 0
DWIDTH 7 0
BBX 7 4 0 6
BITMAP
10
28
44
82
ENDCHAR

STARTCHAR underscore
ENCODING 95
SWIDTH 500 0
DWIDTH 8 0
BBX 8 1 0 -2
BITMAP
FF
ENDCHAR

STARTCHAR quoteleft
ENCODING 96
SWIDTH 260 0
DWIDTH 4 0
BBX 2 3 1 7
BITMAP
40
80
80
ENDCHAR

STARTCHAR a
ENCODING 97
SWIDTH 396 0
DWIDTH 6 0
BBX 5 6 1 0
BITMAP
60
90
30
50
90
E8
ENDCHAR

STARTCHAR b
ENCODING 98
SWIDTH 500 0
DWIDTH 8 0
BBX 6 10 0 0
BITMAP
C0
40
40
40
58
64
44
44
44
78
ENDCHAR

STARTCHAR c
ENCODING 99
SWIDTH 427 0
DWIDTH 6 0
BBX 4 6 1 0
BITMAP
70
90
80
80
90
60
ENDCHAR

STARTCHAR d
ENCODING 100
SWIDTH 500 0
DWIDTH 8 0
BBX 6 10 1 0
BITMAP
18
08
08
08
68
98
88
88
98
6C
ENDCHAR

STARTCHAR e
ENCODING 101
SWIDTH 438 0
DWIDTH 7 0
BBX 5 6 1 0
BITMAP
70
88
F8
80
88
70
ENDCHAR

STARTCHAR f
ENCODING 102
SWIDTH 271 0
DWIDTH 4 0
BBX 4 10 0 0
BITMAP
30
40
40
40
E0
40
40
40
40
E0
ENDCHAR

STARTCHAR g
ENCODING 103
SWIDTH 469 0
DWIDTH 7 0
BBX 5 9 1 -3
BITMAP
78
90
90
60
80
70
88
88
70
ENDCHAR

STARTCHAR h
ENCODING 104
SWIDTH 521 0
DWIDTH 8 0
BBX 7 10 0 0
BITMAP
C0
40
40
40
58
64
44
44
44
EE
ENDCHAR

STARTCHAR i
ENCODING 105
SWIDTH 260 0
DWIDTH 4 0
BBX 3 10 0 0
BITMAP
40
00
00
00
C0
40
40
40
40
E0
ENDCHAR

STARTCHAR j
ENCODING 106
SWIDTH 250 0
DWIDTH 4 0
BBX 3 13 -1 -3
BITMAP
20
00
00
00
60
20
20
20
20
20
20
20
C0
ENDCHAR

STARTCHAR k
ENCODING 107
SWIDTH 500 0
DWIDTH 8 0
BBX 7 10 0 0
BITMAP
C0
40
40
40
4C
50
60
50
48
E6
ENDCHAR

STARTCHAR l
ENCODING 108
SWIDTH 240 0
DWIDTH 4 0
BBX 3 10 0 0
BITMAP
C0
40
40
40
40
40
40
40
40
E0
ENDCHAR

STARTCHAR m
ENCODING 109
SWIDTH 792 0
DWIDTH 12 0
BBX 11 6 0 0
BITMAP
DD80
6640
4440
4440
4440
EEE0
ENDCHAR

STARTCHAR n
ENCODING 110
SWIDTH 521 0
DWIDTH 8 0
BBX 7 6 0 0
BITMAP
D8
64
44
44
44
EE
ENDCHAR

STARTCHAR o
ENCODING 111
SWIDTH 521 0
DWIDTH 8 0
BBX 5 6 1 0
BITMAP
70
88
88
88
88
70
ENDCHAR

STARTCHAR p
ENCODING 112
SWIDTH 500 0
DWIDTH 8 0
BBX 6 9 0 -3
BITMAP
D8
64
44
44
64
58
40
40
E0
ENDCHAR

STARTCHAR q
ENCODING 113
SWIDTH 500 0
DWIDTH 8 0
BBX 6 9 1 -3
BITMAP
68
98
88
88
98
68
08
08
1C
ENDCHAR

STARTCHAR r
ENCODING 114
SWIDTH 333 0
DWIDTH 5 0
BBX 5 6 0 0
BITMAP
D8
60
40
40
40
E0
ENDCHAR

STARTCHAR s
ENCODING 115
SWIDTH 302 0
DWIDTH 5 0
BBX 3 6 1 0
BITMAP
60
A0
C0
20
A0
C0
ENDCHAR

STARTCHAR t
ENCODING 116
SWIDTH 292 0
DWIDTH 4 0
BBX 4 7 0 0
BITMAP
40
E0
40
40
40
40
30
ENDCHAR

STARTCHAR u
ENCODING 117
SWIDTH 521 0
DWIDTH 8 0
BBX 7 6 0 0
BITMAP
CC
44
44
44
4C
36
ENDCHAR

STARTCHAR v
ENCODING 118
SWIDTH 479 0
DWIDTH 7 0
BBX 7 6 0 0
BITMAP
EE
44
28
28
10
10
ENDCHAR

STARTCHAR w
ENCODING 119
SWIDTH 740 0
DWIDTH 11 0
BBX 11 6 0 0
BITMAP
EEE0
4440
2A80
2A80
1100
1100
ENDCHAR

STARTCHAR x
ENCODING 120
SWIDTH 490 0
DWIDTH 7 0
BBX 6 6 0 0
BITMAP
DC
48
30
30
48
EC
ENDCHAR

STARTCHAR y
ENCODING 121
SWIDTH 469 0
DWIDTH 7 0
BBX 7 9 0 -3
BITMAP
EE
44
28
28
10
10
20
60
40
ENDCHAR

STARTCHAR z
ENCODING 122
SWIDTH 406 0
DWIDTH 6 0
BBX 5 6 0 0
BITMAP
F8
90
20
40
88
F8
ENDCHAR

STARTCHAR braceleft
ENCODING 123
SWIDTH 479 0
DWIDTH 7 0
BBX 3 13 2 -3
BITMAP
20
40
40
40
40
40
80
40
40
40
40
40
20
ENDCHAR

STARTCHAR bar
ENCODING 124
SWIDTH 510 0
DWIDTH 8 0
BBX 1 13 3 -3
BITMAP
80
80
80
80
80
80
80
80
80
80
80
80
80
ENDCHAR

STARTCHAR braceright
ENCODING 125
SWIDTH 479 0
DWIDTH 7 0
BBX 3 13 2 -3
BITMAP
80
40
40
40
40
40
20
40
40
40
40
40
80
ENDCHAR

STARTCHAR asciitilde
ENCODING 126
SWIDTH 542 0
DWIDTH 8 0
BBX 8 2 0 4
BITMAP
71
8E
ENDCHAR

STARTCHAR space
ENCODING 160
SWIDTH 278 0
DWIDTH 4 0
BBX 0 0 0 0
BITMAP
ENDCHAR

STARTCHAR exclamdown
ENCODING 161
SWIDTH 260 0
DWIDTH 4 0
BBX 1 9 1 -3
BITMAP
80
00
00
80
80
80
80
80
80
ENDCHAR

STARTCHAR cent
ENCODING 162
SWIDTH 427 0
DWIDTH 6 0
BBX 5 10 0 -2
BITMAP
10
10
78
A8
A0
A0
A8
70
40
40
ENDCHAR

STARTCHAR sterling
ENCODING 163
SWIDTH 760 0
DWIDTH 11 0
BBX 9 13 1 -3
BITMAP
0300
0480
0400
0800
0800
0800
1000
1000
7800
2000
7080
8900
8600
ENDCHAR

STARTCHAR currency
ENCODING 164
SWIDTH 667 0
DWIDTH 10 0
BBX 7 7 1 1
BITMAP
BA
44
82
82
82
44
BA
ENDCHAR

STARTCHAR yen
ENCODING 165
SWIDTH 500 0
DWIDTH 8 0
BBX 7 10 0 0
BITMAP
EE
44
28
10
FE
10
FE
10
10
38
ENDCHAR

STARTCHAR brokenbar
ENCODING 166
SWIDTH 510 0
DWIDTH 8 0
BBX 1 13 3 -3
BITMAP
80
80
80
80
80
00
00
80
80
80
80
80
80
ENDCHAR

STARTCHAR section
ENCODING 167
SWIDTH 469 0
DWIDTH 7 0
BBX 6 13 0 -3
BITMAP
38
44
40
A0
90
90
48
24
24
14
08
88
70
ENDCHAR

STARTCHAR dieresis
ENCODING 168
SWIDTH 333 0
DWIDTH 5 0
BBX 4 1 0 8
BITMAP
90
ENDCHAR

STARTCHAR copyright
ENCODING 169
SWIDTH 760 0
DWIDTH 11 0
BBX 10 10 0 0
BITMAP
3F00
4080
8E40
9240
9040
9040
9240
8E40
4080
3F00
ENDCHAR

STARTCHAR ordfeminine
ENCODING 170
SWIDTH 260 0
DWIDTH 4 0
BBX 4 5 0 5
BITMAP
40
A0
60
A0
D0
ENDCHAR

STARTCHAR guillemotleft
ENCODING 171
SWIDTH 354 0
DWIDTH 5 0
BBX 5 5 0 1
BITMAP
28
50
A0
50
28
ENDCHAR

STARTCHAR logicalnot
ENCODING 172
SWIDTH 667 0
DWIDTH 10 0
BBX 8 4 1 3
BITMAP
FF
01
01
01
ENDCHAR

STARTCHAR hyphen
ENCODING 173
SWIDTH 396 0
DWIDTH 6 0
BBX 4 1 1 2
BITMAP
F0
ENDCHAR

STARTCHAR registered
ENCODING 174
SWIDTH 760 0
DWIDTH 11 0
BBX 10 10 0 0
BITMAP
3F00
4080
BC40
9240
9240
9C40
9240
B340
4080
3F00
ENDCHAR

STARTCHAR macron
ENCODING 175
SWIDTH 333 0
DWIDTH 5 0
BBX 5 1 0 8
BITMAP
F8
ENDCHAR

STARTCHAR degree
ENCODING 176
SWIDTH 396 0
DWIDTH 6 0
BBX 4 4 1 6
BITMAP
60
90
90
60
ENDCHAR

STARTCHAR plusminus
ENCODING 177
SWIDTH 667 0
DWIDTH 10 0
BBX 7 9 1 1
BITMAP
10
10
10
FE
10
10
10
00
FE
ENDCHAR

STARTCHAR twosuperior
ENCODING 178
SWIDTH 302 0
DWIDTH 5 0
BBX 4 5 0 5
BITMAP
60
90
20
40
F0
ENDCHAR

STARTCHAR threesuperior
ENCODING 179
SWIDTH 302 0
DWIDTH 5 0
BBX 3 5 1 5
BITMAP
C0
20
60
20
C0
ENDCHAR

STARTCHAR acute
ENCODING 180
SWIDTH 333 0
DWIDTH 5 0
BBX 2 2 2 8
BITMAP
40
80
ENDCHAR

STARTCHAR mu
ENCODING 181
SWIDTH 500 0
DWIDTH 8 0
BBX 6 9 1 -3
BITMAP
88
88
88
88
98
EC
80
80
80
ENDCHAR

STARTCHAR paragraph
ENCODING 182
SWIDTH 448 0
DWIDTH 7 0
BBX 6 13 1 -3
BITMAP
3C
68
E8
E8
E8
E8
28
28
28
28
28
28
28
ENDCHAR

STARTCHAR periodcentered
ENCODING 183
SWIDTH 260 0
DWIDTH 4 0
BBX 1 1 1 4
BITMAP
80
ENDCHAR

STARTCHAR cedilla
ENCODING 184
SWIDTH 333 0
DWIDTH 5 0
BBX 4 3 0 -3
BITMAP
20
10
E0
ENDCHAR

STARTCHAR onesuperior
ENCODING 185
SWIDTH 302 0
DWIDTH 5 0
BBX 3 5 1 5
BITMAP
40
C0
40
40
E0
ENDCHAR

STARTCHAR ordmasculine
ENCODING 186
SWIDTH 344 0
DWIDTH 5 0
BBX 4 5 0 5
BITMAP
60
90
90
90
60
ENDCHAR

STARTCHAR guillemotright
ENCODING 187
SWIDTH 354 0
DWIDTH 5 0
BBX 5 5 0 1
BITMAP
A0
50
28
50
A0
ENDCHAR

STARTCHAR onequarter
ENCODING 188
SWIDTH 719 0
DWIDTH 11 0
BBX 9 10 1 0
BITMAP
4000
C080
4100
4200
E400
0900
1300
2500
4F80
8100
ENDCHAR

STARTCHAR onehalf
ENCODING 189
SWIDTH 719 0
DWIDTH 11 0
BBX 10 10 0 0
BITMAP
2040
6080
2100
2200
7400
0980
1240
2080
4100
83C0
ENDCHAR

STARTCHAR threequarters
ENCODING 190
SWIDTH 719 0
DWIDTH 11 0
BBX 10 10 0 0
BITMAP
6040
1080
3100
1200
6400
0880
1180
2280
47C0
8080
ENDCHAR

STARTCHAR questiondown
ENCODING 191
SWIDTH 354 0
DWIDTH 5 0
BBX 4 10 0 -3
BITMAP
10
00
00
10
10
20
40
80
80
70
ENDCHAR

STARTCHAR Agrave
ENCODING 192
SWIDTH 677 0
DWIDTH 10 0
BBX 9 13 0 0
BITMAP
1800
0400
0000
0800
0800
1400
1400
2200
3E00
2200
4100
4100
E380
ENDCHAR

STARTCHAR Aacute
ENCODING 193
SWIDTH 677 0
DWIDTH 10 0
BBX 9 13 0 0
BITMAP
0600
0800
0000
0800
0800
1400
1400
2200
3E00
2200
4100
4100
E380
ENDCHAR

STARTCHAR Acircumflex
ENCODING 194
SWIDTH 677 0
DWIDTH 10 0
BBX 9 13 0 0
BITMAP
0800
1400
0000
0800
0800
1400
1400
2200
3E00
2200
4100
4100
E380
ENDCHAR

STARTCHAR Atilde
ENCODING 195
SWIDTH 677 0
DWIDTH 10 0
BBX 9 13 0 0
BITMAP
1900
2600
0000
0800
0800
1400
1400
2200
3E00
2200
4100
4100
E380
ENDCHAR

STARTCHAR Adieresis
ENCODING 196
SWIDTH 677 0
DWIDTH 10 0
BBX 9 12 0 0
BITMAP
1400
0000
0800
0800
1400
1400
2200
3E00
2200
4100
4100
E380
ENDCHAR

STARTCHAR Aring
ENCODING 197
SWIDTH 677 0
DWIDTH 10 0
BBX 9 13 0 0
BITMAP
0800
1400
0800
0800
0800
1400
1400
2200
3E00
2200
4100
4100
E380
ENDCHAR

STARTCHAR AE
ENCODING 198
SWIDTH 875 0
DWIDTH 13 0
BBX 12 10 0 0
BITMAP
1FF0
0A10
0A00
1220
13E0
3E20
2200
4200
4210
EFF0
ENDCHAR

STARTCHAR Ccedilla
ENCODING 199
SWIDTH 729 0
DWIDTH 11 0
BBX 9 13 1 -3
BITMAP
3E00
4180
8080
8000
8000
8000
8000
8080
4180
3E00
0800
0400
3800
ENDCHAR

STARTCHAR Egrave
ENCODING 200
SWIDTH 594 0
DWIDTH 9 0
BBX 7 13 1 0
BITMAP
30
08
00
FE
42
40
44
7C
44
40
40
42
FE
ENDCHAR

STARTCHAR Eacute
ENCODING 201
SWIDTH 594 0
DWIDTH 9 0
BBX 7 13 1 0
BITMAP
18
20
00
FE
42
40
44
7C
44
40
40
42
FE
ENDCHAR

STARTCHAR Ecircumflex
ENCODING 202
SWIDTH 594 0
DWIDTH 9 0
BBX 7 13 1 0
BITMAP
10
28
00
FE
42
40
44
7C
44
40
40
42
FE
ENDCHAR

STARTCHAR Edieresis
ENCODING 203
SWIDTH 594 0
DWIDTH 9 0
BBX 7 12 1 0
BITMAP
24
00
FE
42
40
44
7C
44
40
40
42
FE
ENDCHAR

STARTCHAR Igrave
ENCODING 204
SWIDTH 333 0
DWIDTH 5 0
BBX 3 13 1 0
BITMAP
C0
20
00
E0
40
40
40
40
40
40
40
40
E0
ENDCHAR

STARTCHAR Iacute
ENCODING 205
SWIDTH 333 0
DWIDTH 5 0
BBX 3 13 1 0
BITMAP
60
80
00
E0
40
40
40
40
40
40
40
40
E0
ENDCHAR

STARTCHAR Icircumflex
ENCODING 206
SWIDTH 333 0
DWIDTH 5 0
BBX 3 13 1 0
BITMAP
40
A0
00
E0
40
40
40
40
40
40
40
40
E0
ENDCHAR

STARTCHAR Idieresis
ENCODING 207
SWIDTH 333 0
DWIDTH 5 0
BBX 3 12 1 0
BITMAP
A0
00
E0
40
40
40
40
40
40
40
40
E0
ENDCHAR

STARTCHAR Eth
ENCODING 208
SWIDTH 760 0
DWIDTH 11 0
BBX 9 10 1 0
BITMAP
FC00
4200
4100
4080
4080
F080
4080
4100
4200
FC00
ENDCHAR

STARTCHAR Ntilde
ENCODING 209
SWIDTH 813 0
DWIDTH 12 0
BBX 10 13 1 0
BITMAP
1900
2600
0000
E1C0
6080
5080
5080
4880
4480
4480
4280
4180
E080
ENDCHAR

STARTCHAR Ograve
ENCODING 210
SWIDTH 823 0
DWIDTH 12 0
BBX 10 13 1 0
BITMAP
1800
0400
0000
3F00
4080
8040
8040
8040
8040
8040
8040
4080
3F00
ENDCHAR

STARTCHAR Oacute
ENCODING 211
SWIDTH 823 0
DWIDTH 12 0
BBX 10 13 1 0
BITMAP
0600
0800
0000
3F00
4080
8040
8040
8040
8040
8040
8040
4080
3F00
ENDCHAR

STARTCHAR Ocircumflex
ENCODING 212
SWIDTH 823 0
DWIDTH 12 0
BBX 10 13 1 0
BITMAP
0C00
1200
0000
3F00
4080
8040
8040
8040
8040
8040
8040
4080
3F00
ENDCHAR

STARTCHAR Otilde
ENCODING 213
SWIDTH 823 0
DWIDTH 12 0
BBX 10 13 1 0
BITMAP
0C80
1300
0000
3F00
4080
8040
8040
8040
8040
8040
8040
4080
3F00
ENDCHAR

STARTCHAR Odieresis
ENCODING 214
SWIDTH 823 0
DWIDTH 12 0
BBX 10 12 1 0
BITMAP
1200
0000
3F00
4080
8040
8040
8040
8040
8040
8040
4080
3F00
ENDCHAR

STARTCHAR multiply
ENCODING 215
SWIDTH 667 0
DWIDTH 10 0
BBX 7 7 1 1
BITMAP
82
44
28
10
28
44
82
ENDCHAR

STARTCHAR Oslash
ENCODING 216
SWIDTH 823 0
DWIDTH 12 0
BBX 12 12 0 -1
BITMAP
0010
1FA0
2040
40A0
4120
4220
4420
4820
5020
2040
5F80
8000
ENDCHAR

STARTCHAR Ugrave
ENCODING 217
SWIDTH 792 0
DWIDTH 12 0
BBX 10 13 1 0
BITMAP
1800
0400
0000
E1C0
4080
4080
4080
4080
4080
4080
4080
2100
1E00
ENDCHAR

STARTCHAR Uacute
ENCODING 218
SWIDTH 792 0
DWIDTH 12 0
BBX 10 13 1 0
BITMAP
0600
0800
0000
E1C0
4080
4080
4080
4080
4080
4080
4080
2100
1E00
ENDCHAR

STARTCHAR Ucircumflex
ENCODING 219
SWIDTH 792 0
DWIDTH 12 0
BBX 10 13 1 0
BITMAP
0C00
1200
0000
E1C0
4080
4080
4080
4080
4080
4080
4080
2100
1E00
ENDCHAR

STARTCHAR Udieresis
ENCODING 220
SWIDTH 792 0
DWIDTH 12 0
BBX 10 12 1 0
BITMAP
1200
0000
E1C0
4080
4080
4080
4080
4080
4080
4080
2100
1E00
ENDCHAR

STARTCHAR Yacute
ENCODING 221
SWIDTH 708 0
DWIDTH 11 0
BBX 9 13 1 0
BITMAP
0C00
1000
0000
E380
4100
2200
1400
0800
0800
0800
0800
0800
1C00
ENDCHAR

STARTCHAR Thorn
ENCODING 222
SWIDTH 563 0
DWIDTH 8 0
BBX 6 10 1 0
BITMAP
E0
40
78
44
44
44
44
78
40
E0
ENDCHAR

STARTCHAR germandbls
ENCODING 223
SWIDTH 521 0
DWIDTH 8 0
BBX 6 10 1 0
BITMAP
18
24
44
44
58
44
44
44
54
C8
ENDCHAR

STARTCHAR agrave
ENCODING 224
SWIDTH 396 0
DWIDTH 6 0
BBX 5 9 1 0
BITMAP
C0
20
00
60
90
30
50
90
E8
ENDCHAR

STARTCHAR aacute
ENCODING 225
SWIDTH 396 0
DWIDTH 6 0
BBX 5 9 1 0
BITMAP
30
40
00
60
90
30
50
90
E8
ENDCHAR

STARTCHAR acircumflex
ENCODING 226
SWIDTH 396 0
DWIDTH 6 0
BBX 5 9 1 0
BITMAP
60
90
00
60
90
30
50
90
E8
ENDCHAR

STARTCHAR atilde
ENCODING 227
SWIDTH 396 0
DWIDTH 6 0
BBX 6 9 0 0
BITMAP
64
98
00
30
48
18
28
48
74
ENDCHAR

STARTCHAR adieresis
ENCODING 228
SWIDTH 396 0
DWIDTH 6 0
BBX 5 8 1 0
BITMAP
90
00
60
90
30
50
90
E8
ENDCHAR

STARTCHAR aring
ENCODING 229
SWIDTH 396 0
DWIDTH 6 0
BBX 5 10 1 0
BITMAP
20
50
20
00
60
90
30
50
90
E8
ENDCHAR

STARTCHAR ae
ENCODING 230
SWIDTH 625 0
DWIDTH 9 0
BBX 7 6 1 0
BITMAP
6C
92
3E
50
92
EC
ENDCHAR

STARTCHAR ccedilla
ENCODING 231
SWIDTH 427 0
DWIDTH 6 0
BBX 4 9 1 -3
BITMAP
70
90
80
80
90
70
20
10
60
ENDCHAR

STARTCHAR egrave
ENCODING 232
SWIDTH 438 0
DWIDTH 7 0
BBX 5 9 1 0
BITMAP
60
10
00
70
88
F8
80
88
70
ENDCHAR

STARTCHAR eacute
ENCODING 233
SWIDTH 438 0
DWIDTH 7 0
BBX 5 9 1 0
BITMAP
18
20
00
70
88
F8
80
88
70
ENDCHAR

STARTCHAR ecircumflex
ENCODING 234
SWIDTH 438 0
DWIDTH 7 0
BBX 5 9 1 0
BITMAP
30
48
00
70
88
F8
80
88
70
ENDCHAR

STARTCHAR edieresis
ENCODING 235
SWIDTH 438 0
DWIDTH 7 0
BBX 5 8 1 0
BITMAP
48
00
70
88
F8
80
88
70
ENDCHAR

STARTCHAR igrave
ENCODING 236
SWIDTH 260 0
DWIDTH 4 0
BBX 3 9 0 0
BITMAP
C0
20
00
C0
40
40
40
40
E0
ENDCHAR

STARTCHAR iacute
ENCODING 237
SWIDTH 260 0
DWIDTH 4 0
BBX 3 9 0 0
BITMAP
60
80
00
C0
40
40
40
40
E0
ENDCHAR

STARTCHAR icircumflex
ENCODING 238
SWIDTH 260 0
DWIDTH 4 0
BBX 3 9 0 0
BITMAP
40
A0
00
C0
40
40
40
40
E0
ENDCHAR

STARTCHAR idieresis
ENCODING 239
SWIDTH 260 0
DWIDTH 4 0
BBX 3 8 0 0
BITMAP
A0
00
C0
40
40
40
40
E0
ENDCHAR

STARTCHAR eth
ENCODING 240
SWIDTH 521 0
DWIDTH 8 0
BBX 5 10 1 0
BITMAP
58
20
50
08
78
88
88
88
88
70
ENDCHAR

STARTCHAR ntilde
ENCODING 241
SWIDTH 521 0
DWIDTH 8 0
BBX 7 9 0 0
BITMAP
32
4C
00
D8
64
44
44
44
EE
ENDCHAR

STARTCHAR ograve
ENCODING 242
SWIDTH 521 0
DWIDTH 8 0
BBX 5 9 1 0
BITMAP
60
10
00
70
88
88
88
88
70
ENDCHAR

STARTCHAR oacute
ENCODING 243
SWIDTH 521 0
DWIDTH 8 0
BBX 5 9 1 0
BITMAP
30
40
00
70
88
88
88
88
70
ENDCHAR

STARTCHAR ocircumflex
ENCODING 244
SWIDTH 521 0
DWIDTH 8 0
BBX 5 9 1 0
BITMAP
20
50
00
70
88
88
88
88
70
ENDCHAR

STARTCHAR otilde
ENCODING 245
SWIDTH 521 0
DWIDTH 8 0
BBX 6 9 1 0
BITMAP
64
98
00
70
88
88
88
88
70
ENDCHAR

STARTCHAR odieresis
ENCODING 246
SWIDTH 521 0
DWIDTH 8 0
BBX 5 8 1 0
BITMAP
50
00
70
88
88
88
88
70
ENDCHAR

STARTCHAR divide
ENCODING 247
SWIDTH 667 0
DWIDTH 10 0
BBX 7 7 1 2
BITMAP
10
00
00
FE
00
00
10
ENDCHAR

STARTCHAR oslash
ENCODING 248
SWIDTH 521 0
DWIDTH 8 0
BBX 7 8 0 -1
BITMAP
02
3C
4C
54
54
64
78
80
ENDCHAR

STARTCHAR ugrave
ENCODING 249
SWIDTH 521 0
DWIDTH 8 0
BBX 7 9 0 0
BITMAP
30
08
00
CC
44
44
44
4C
36
ENDCHAR

STARTCHAR uacute
ENCODING 250
SWIDTH 521 0
DWIDTH 8 0
BBX 7 9 0 0
BITMAP
18
20
00
CC
44
44
44
4C
36
ENDCHAR

STARTCHAR ucircumflex
ENCODING 251
SWIDTH 521 0
DWIDTH 8 0
BBX 7 9 0 0
BITMAP
10
28
00
CC
44
44
44
4C
36
ENDCHAR

STARTCHAR udieresis
ENCODING 252
SWIDTH 521 0
DWIDTH 8 0
BBX 7 8 0 0
BITMAP
28
00
CC
44
44
44
4C
36
ENDCHAR

STARTCHAR yacute
ENCODING 253
SWIDTH 469 0
DWIDTH 7 0
BBX 7 13 0 -4
BITMAP
18
20
00
EE
44
28
28
10
10
10
20
60
40
ENDCHAR

STARTCHAR thorn
ENCODING 254
SWIDTH 500 0
DWIDTH 8 0
BBX 6 13 1 -3
BITMAP
C0
40
40
40
58
64
44
44
64
58
40
40
E0
ENDCHAR

STARTCHAR ydieresis
ENCODING 255
SWIDTH 469 0
DWIDTH 7 0
BBX 7 11 0 -3
BITMAP
24
00
EE
44
28
28
10
10
20
60
40
ENDCHAR
ENDFONT
